<svg xmlns="http://www.w3.org/2000/svg" xmlns:xlink="http://www.w3.org/1999/xlink" width="360px" height="240px" viewBox="0 0 360 240" version="1.1">
<rect width="100%" height="100%" fill="black"/><rect x="1" y="1" width="10" height="10"
fill="black"
/>
<rect x="13" y="1" width="10" height="10"
fill="black"
/>
<rect x="25" y="1" width="10" height="10"
fill="black"
/>
<rect x="37" y="1" width="10" height="10"
fill="black"
/>
<rect x="49" y="1" width="10" height="10"
fill="black"
/>
<rect x="61" y="1" width="10" height="10"
fill="black"
/>
<rect x="73" y="1" width="10" height="10"
fill="black"
/>
<rect x="85" y="1" width="10" height="10"
fill="black"
/>
<rect x="97" y="1" width="10" height="10"
fill="black"
/>
<rect x="109" y="1" width="10" height="10"
fill="black"
/>
<rect x="121" y="1" width="10" height="10"
fill="black"
/>
<rect x="133" y="1" width="10" height="10"
fill="black"
/>
<rect x="145" y="1" width="10" height="10"
fill="black"
/>
<rect x="157" y="1" width="10" height="10"
fill="black"
/>
<rect x="169" y="1" width="10" height="10"
fill="black"
/>
<rect x="181" y="1" width="10" height="10"
fill="black"
/>
<rect x="193" y="1" width="10" height="10"
fill="black"
/>
<rect x="205" y="1" width="10" height="10"
fill="black"
/>
<rect x="217" y="1" width="10" height="10"
fill="black"
/>
<rect x="229" y="1" width="10" height="10"
fill="black"
/>
<rect x="241" y="1" width="10" height="10"
fill="black"
/>
<rect x="253" y="1" width="10" height="10"
fill="black"
/>
<rect x="265" y="1" width="10" height="10"
fill="black"
/>
<rect x="277" y="1" width="10" height="10"
fill="black"
/>
<rect x="289" y="1" width="10" height="10"
fill="black"
/>
<rect x="301" y="1" width="10" height="10"
fill="black"
/>
<rect x="313" y="1" width="10" height="10"
fill="black"
/>
<rect x="325" y="1" width="10" height="10"
fill="black"
/>
<rect x="337" y="1" width="10" height="10"
fill="black"
/>
<rect x="349" y="1" width="10" height="10"
fill="black"
/>
<rect x="1" y="13" width="10" height="10"
fill="black"
/>
<rect x="13" y="13" width="10" height="10"
fill="black"
/>
<rect x="25" y="13" width="10" height="10"
fill="black"
/>
<rect x="37" y="13" width="10" height="10"
fill="black"
/>
<rect x="49" y="13" width="10" height="10"
fill="black"
/>
<rect x="61" y="13" width="10" height="10"
fill="black"
/>
<rect x="73" y="13" width="10" height="10"
fill="black"
/>
<rect x="85" y="13" width="10" height="10"
fill="black"
/>
<rect x="97" y="13" width="10" height="10"
fill="black"
/>
<rect x="109" y="13" width="10" height="10"
fill="black"
/>
<rect x="121" y="13" width="10" height="10"
fill="black"
/>
<rect x="133" y="13" width="10" height="10"
fill="black"
/>
<rect x="145" y="13" width="10" height="10"
fill="black"
/>
<rect x="157" y="13" width="10" height="10"
fill="black"
/>
<rect x="169" y="13" width="10" height="10"
fill="black"
/>
<rect x="181" y="13" width="10" height="10"
fill="black"
/>
<rect x="193" y="13" width="10" height="10"
fill="black"
/>
<rect x="205" y="13" width="10" height="10"
fill="black"
/>
<rect x="217" y="13" width="10" height="10"
fill="black"
/>
<rect x="229" y="13" width="10" height="10"
fill="black"
/>
<rect x="241" y="13" width="10" height="10"
fill="black"
/>
<rect x="253" y="13" width="10" height="10"
fill="black"
/>
<rect x="265" y="13" width="10" height="10"
fill="black"
/>
<rect x="277" y="13" width="10" height="10"
fill="black"
/>
<rect x="289" y="13" width="10" height="10"
fill="black"
/>
<rect x="301" y="13" width="10" height="10"
fill="black"
/>
<rect x="313" y="13" width="10" height="10"
fill="black"
/>
<rect x="325" y="13" width="10" height="10"
fill="black"
/>
<rect x="337" y="13" width="10" height="10"
fill="black"
/>
<rect x="349" y="13" width="10" height="10"
fill="black"
/>
<rect x="1" y="25" width="10" height="10"
fill="black"
/>
<rect x="13" y="25" width="10" height="10"
fill="black"
/>
<rect x="25" y="25" width="10" height="10"
fill="black"
/>
<rect x="37" y="25" width="10" height="10"
fill="black"
/>
<rect x="49" y="25" width="10" height="10"
fill="black"
/>
<rect x="61" y="25" width="10" height="10"
fill="black"
/>
<rect x="73" y="25" width="10" height="10"
fill="black"
/>
<rect x="85" y="25" width="10" height="10"
fill="black"
/>
<rect x="97" y="25" width="10" height="10"
fill="black"
/>
<rect x="109" y="25" width="10" height="10"
fill="black"
/>
<rect x="121" y="25" width="10" height="10"
fill="black"
/>
<rect x="133" y="25" width="10" height="10"
fill="black"
/>
<rect x="145" y="25" width="10" height="10"
fill="black"
/>
<rect x="157" y="25" width="10" height="10"
fill="black"
/>
<rect x="169" y="25" width="10" height="10"
fill="black"
/>
<rect x="181" y="25" width="10" height="10"
fill="black"
/>
<rect x="193" y="25" width="10" height="10"
fill="black"
/>
<rect x="205" y="25" width="10" height="10"
fill="black"
/>
<rect x="217" y="25" width="10" height="10"
fill="black"
/>
<rect x="229" y="25" width="10" height="10"
fill="black"
/>
<rect x="241" y="25" width="10" height="10"
fill="black"
/>
<rect x="253" y="25" width="10" height="10"
fill="black"
/>
<rect x="265" y="25" width="10" height="10"
fill="black"
/>
<rect x="277" y="25" width="10" height="10"
fill="black"
/>
<rect x="289" y="25" width="10" height="10"
fill="black"
/>
<rect x="301" y="25" width="10" height="10"
fill="black"
/>
<rect x="313" y="25" width="10" height="10"
fill="black"
/>
<rect x="325" y="25" width="10" height="10"
fill="black"
/>
<rect x="337" y="25" width="10" height="10"
fill="black"
/>
<rect x="349" y="25" width="10" height="10"
fill="black"
/>
<rect x="1" y="37" width="10" height="10"
fill="black"
/>
<rect x="13" y="37" width="10" height="10"
fill="black"
/>
<rect x="25" y="37" width="10" height="10"
fill="black"
/>
<rect x="37" y="37" width="10" height="10"
fill="black"
/>
<rect x="49" y="37" width="10" height="10"
fill="black"
/>
<rect x="61" y="37" width="10" height="10"
fill="black"
/>
<rect x="73" y="37" width="10" height="10"
fill="black"
/>
<rect x="85" y="37" width="10" height="10"
fill="white"
/>
<rect x="97" y="37" width="10" height="10"
fill="white"
/>
<rect x="109" y="37" width="10" height="10"
fill="white"
/>
<rect x="121" y="37" width="10" height="10"
fill="black"
/>
<rect x="133" y="37" width="10" height="10"
fill="black"
/>
<rect x="145" y="37" width="10" height="10"
fill="black"
/>
<rect x="157" y="37" width="10" height="10"
fill="black"
/>
<rect x="169" y="37" width="10" height="10"
fill="black"
/>
<rect x="181" y="37" width="10" height="10"
fill="black"
/>
<rect x="193" y="37" width="10" height="10"
fill="black"
/>
<rect x="205" y="37" width="10" height="10"
fill="black"
/>
<rect x="217" y="37" width="10" height="10"
fill="black"
/>
<rect x="229" y="37" width="10" height="10"
fill="black"
/>
<rect x="241" y="37" width="10" height="10"
fill="black"
/>
<rect x="253" y="37" width="10" height="10"
fill="black"
/>
<rect x="265" y="37" width="10" height="10"
fill="black"
/>
<rect x="277" y="37" width="10" height="10"
fill="black"
/>
<rect x="289" y="37" width="10" height="10"
fill="black"
/>
<rect x="301" y="37" width="10" height="10"
fill="black"
/>
<rect x="313" y="37" width="10" height="10"
fill="black"
/>
<rect x="325" y="37" width="10" height="10"
fill="black"
/>
<rect x="337" y="37" width="10" height="10"
fill="black"
/>
<rect x="349" y="37" width="10" height="10"
fill="black"
/>
<rect x="1" y="49" width="10" height="10"
fill="black"
/>
<rect x="13" y="49" width="10" height="10"
fill="black"
/>
<rect x="25" y="49" width="10" height="10"
fill="black"
/>
<rect x="37" y="49" width="10" height="10"
fill="black"
/>
<rect x="49" y="49" width="10" height="10"
fill="black"
/>
<rect x="61" y="49" width="10" height="10"
fill="black"
/>
<rect x="73" y="49" width="10" height="10"
fill="black"
/>
<rect x="85" y="49" width="10" height="10"
fill="black"
/>
<rect x="97" y="49" width="10" height="10"
fill="black"
/>
<rect x="109" y="49" width="10" height="10"
fill="black"
/>
<rect x="121" y="49" width="10" height="10"
fill="black"
/>
<rect x="133" y="49" width="10" height="10"
fill="black"
/>
<rect x="145" y="49" width="10" height="10"
fill="black"
/>
<rect x="157" y="49" width="10" height="10"
fill="black"
/>
<rect x="169" y="49" width="10" height="10"
fill="black"
/>
<rect x="181" y="49" width="10" height="10"
fill="black"
/>
<rect x="193" y="49" width="10" height="10"
fill="black"
/>
<rect x="205" y="49" width="10" height="10"
fill="black"
/>
<rect x="217" y="49" width="10" height="10"
fill="black"
/>
<rect x="229" y="49" width="10" height="10"
fill="black"
/>
<rect x="241" y="49" width="10" height="10"
fill="black"
/>
<rect x="253" y="49" width="10" height="10"
fill="black"
/>
<rect x="265" y="49" width="10" height="10"
fill="black"
/>
<rect x="277" y="49" width="10" height="10"
fill="black"
/>
<rect x="289" y="49" width="10" height="10"
fill="black"
/>
<rect x="301" y="49" width="10" height="10"
fill="black"
/>
<rect x="313" y="49" width="10" height="10"
fill="black"
/>
<rect x="325" y="49" width="10" height="10"
fill="black"
/>
<rect x="337" y="49" width="10" height="10"
fill="black"
/>
<rect x="349" y="49" width="10" height="10"
fill="black"
/>
<rect x="1" y="61" width="10" height="10"
fill="black"
/>
<rect x="13" y="61" width="10" height="10"
fill="black"
/>
<rect x="25" y="61" width="10" height="10"
fill="black"
/>
<rect x="37" y="61" width="10" height="10"
fill="black"
/>
<rect x="49" y="61" width="10" height="10"
fill="black"
/>
<rect x="61" y="61" width="10" height="10"
fill="black"
/>
<rect x="73" y="61" width="10" height="10"
fill="white"
/>
<rect x="85" y="61" width="10" height="10"
fill="black"
/>
<rect x="97" y="61" width="10" height="10"
fill="black"
/>
<rect x="109" y="61" width="10" height="10"
fill="black"
/>
<rect x="121" y="61" width="10" height="10"
fill="white"
/>
<rect x="133" y="61" width="10" height="10"
fill="black"
/>
<rect x="145" y="61" width="10" height="10"
fill="black"
/>
<rect x="157" y="61" width="10" height="10"
fill="black"
/>
<rect x="169" y="61" width="10" height="10"
fill="black"
/>
<rect x="181" y="61" width="10" height="10"
fill="white"
/>
<rect x="193" y="61" width="10" height="10"
fill="white"
/>
<rect x="205" y="61" width="10" height="10"
fill="white"
/>
<rect x="217" y="61" width="10" height="10"
fill="black"
/>
<rect x="229" y="61" width="10" height="10"
fill="black"
/>
<rect x="241" y="61" width="10" height="10"
fill="black"
/>
<rect x="253" y="61" width="10" height="10"
fill="black"
/>
<rect x="265" y="61" width="10" height="10"
fill="black"
/>
<rect x="277" y="61" width="10" height="10"
fill="black"
/>
<rect x="289" y="61" width="10" height="10"
fill="black"
/>
<rect x="301" y="61" width="10" height="10"
fill="black"
/>
<rect x="313" y="61" width="10" height="10"
fill="black"
/>
<rect x="325" y="61" width="10" height="10"
fill="black"
/>
<rect x="337" y="61" width="10" height="10"
fill="black"
/>
<rect x="349" y="61" width="10" height="10"
fill="black"
/>
<rect x="1" y="73" width="10" height="10"
fill="black"
/>
<rect x="13" y="73" width="10" height="10"
fill="black"
/>
<rect x="25" y="73" width="10" height="10"
fill="black"
/>
<rect x="37" y="73" width="10" height="10"
fill="black"
/>
<rect x="49" y="73" width="10" height="10"
fill="black"
/>
<rect x="61" y="73" width="10" height="10"
fill="black"
/>
<rect x="73" y="73" width="10" height="10"
fill="white"
/>
<rect x="85" y="73" width="10" height="10"
fill="black"
/>
<rect x="97" y="73" width="10" height="10"
fill="black"
/>
<rect x="109" y="73" width="10" height="10"
fill="black"
/>
<rect x="121" y="73" width="10" height="10"
fill="white"
/>
<rect x="133" y="73" width="10" height="10"
fill="black"
/>
<rect x="145" y="73" width="10" height="10"
fill="black"
/>
<rect x="157" y="73" width="10" height="10"
fill="black"
/>
<rect x="169" y="73" width="10" height="10"
fill="black"
/>
<rect x="181" y="73" width="10" height="10"
fill="black"
/>
<rect x="193" y="73" width="10" height="10"
fill="white"
/>
<rect x="205" y="73" width="10" height="10"
fill="black"
/>
<rect x="217" y="73" width="10" height="10"
fill="white"
/>
<rect x="229" y="73" width="10" height="10"
fill="white"
/>
<rect x="241" y="73" width="10" height="10"
fill="white"
/>
<rect x="253" y="73" width="10" height="10"
fill="black"
/>
<rect x="265" y="73" width="10" height="10"
fill="black"
/>
<rect x="277" y="73" width="10" height="10"
fill="black"
/>
<rect x="289" y="73" width="10" height="10"
fill="black"
/>
<rect x="301" y="73" width="10" height="10"
fill="black"
/>
<rect x="313" y="73" width="10" height="10"
fill="black"
/>
<rect x="325" y="73" width="10" height="10"
fill="black"
/>
<rect x="337" y="73" width="10" height="10"
fill="black"
/>
<rect x="349" y="73" width="10" height="10"
fill="black"
/>
<rect x="1" y="85" width="10" height="10"
fill="black"
/>
<rect x="13" y="85" width="10" height="10"
fill="black"
/>
<rect x="25" y="85" width="10" height="10"
fill="black"
/>
<rect x="37" y="85" width="10" height="10"
fill="black"
/>
<rect x="49" y="85" width="10" height="10"
fill="black"
/>
<rect x="61" y="85" width="10" height="10"
fill="black"
/>
<rect x="73" y="85" width="10" height="10"
fill="black"
/>
<rect x="85" y="85" width="10" height="10"
fill="black"
/>
<rect x="97" y="85" width="10" height="10"
fill="black"
/>
<rect x="109" y="85" width="10" height="10"
fill="black"
/>
<rect x="121" y="85" width="10" height="10"
fill="black"
/>
<rect x="133" y="85" width="10" height="10"
fill="black"
/>
<rect x="145" y="85" width="10" height="10"
fill="black"
/>
<rect x="157" y="85" width="10" height="10"
fill="black"
/>
<rect x="169" y="85" width="10" height="10"
fill="black"
/>
<rect x="181" y="85" width="10" height="10"
fill="white"
/>
<rect x="193" y="85" width="10" height="10"
fill="white"
/>
<rect x="205" y="85" width="10" height="10"
fill="black"
/>
<rect x="217" y="85" width="10" height="10"
fill="black"
/>
<rect x="229" y="85" width="10" height="10"
fill="white"
/>
<rect x="241" y="85" width="10" height="10"
fill="black"
/>
<rect x="253" y="85" width="10" height="10"
fill="black"
/>
<rect x="265" y="85" width="10" height="10"
fill="white"
/>
<rect x="277" y="85" width="10" height="10"
fill="black"
/>
<rect x="289" y="85" width="10" height="10"
fill="black"
/>
<rect x="301" y="85" width="10" height="10"
fill="black"
/>
<rect x="313" y="85" width="10" height="10"
fill="black"
/>
<rect x="325" y="85" width="10" height="10"
fill="black"
/>
<rect x="337" y="85" width="10" height="10"
fill="black"
/>
<rect x="349" y="85" width="10" height="10"
fill="black"
/>
<rect x="1" y="97" width="10" height="10"
fill="black"
/>
<rect x="13" y="97" width="10" height="10"
fill="black"
/>
<rect x="25" y="97" width="10" height="10"
fill="black"
/>
<rect x="37" y="97" width="10" height="10"
fill="black"
/>
<rect x="49" y="97" width="10" height="10"
fill="black"
/>
<rect x="61" y="97" width="10" height="10"
fill="black"
/>
<rect x="73" y="97" width="10" height="10"
fill="black"
/>
<rect x="85" y="97" width="10" height="10"
fill="white"
/>
<rect x="97" y="97" width="10" height="10"
fill="white"
/>
<rect x="109" y="97" width="10" height="10"
fill="white"
/>
<rect x="121" y="97" width="10" height="10"
fill="black"
/>
<rect x="133" y="97" width="10" height="10"
fill="black"
/>
<rect x="145" y="97" width="10" height="10"
fill="black"
/>
<rect x="157" y="97" width="10" height="10"
fill="black"
/>
<rect x="169" y="97" width="10" height="10"
fill="black"
/>
<rect x="181" y="97" width="10" height="10"
fill="white"
/>
<rect x="193" y="97" width="10" height="10"
fill="white"
/>
<rect x="205" y="97" width="10" height="10"
fill="white"
/>
<rect x="217" y="97" width="10" height="10"
fill="white"
/>
<rect x="229" y="97" width="10" height="10"
fill="white"
/>
<rect x="241" y="97" width="10" height="10"
fill="black"
/>
<rect x="253" y="97" width="10" height="10"
fill="black"
/>
<rect x="265" y="97" width="10" height="10"
fill="black"
/>
<rect x="277" y="97" width="10" height="10"
fill="white"
/>
<rect x="289" y="97" width="10" height="10"
fill="black"
/>
<rect x="301" y="97" width="10" height="10"
fill="black"
/>
<rect x="313" y="97" width="10" height="10"
fill="black"
/>
<rect x="325" y="97" width="10" height="10"
fill="black"
/>
<rect x="337" y="97" width="10" height="10"
fill="black"
/>
<rect x="349" y="97" width="10" height="10"
fill="black"
/>
<rect x="1" y="109" width="10" height="10"
fill="black"
/>
<rect x="13" y="109" width="10" height="10"
fill="black"
/>
<rect x="25" y="109" width="10" height="10"
fill="black"
/>
<rect x="37" y="109" width="10" height="10"
fill="black"
/>
<rect x="49" y="109" width="10" height="10"
fill="black"
/>
<rect x="61" y="109" width="10" height="10"
fill="black"
/>
<rect x="73" y="109" width="10" height="10"
fill="black"
/>
<rect x="85" y="109" width="10" height="10"
fill="black"
/>
<rect x="97" y="109" width="10" height="10"
fill="black"
/>
<rect x="109" y="109" width="10" height="10"
fill="black"
/>
<rect x="121" y="109" width="10" height="10"
fill="black"
/>
<rect x="133" y="109" width="10" height="10"
fill="black"
/>
<rect x="145" y="109" width="10" height="10"
fill="black"
/>
<rect x="157" y="109" width="10" height="10"
fill="black"
/>
<rect x="169" y="109" width="10" height="10"
fill="black"
/>
<rect x="181" y="109" width="10" height="10"
fill="black"
/>
<rect x="193" y="109" width="10" height="10"
fill="white"
/>
<rect x="205" y="109" width="10" height="10"
fill="black"
/>
<rect x="217" y="109" width="10" height="10"
fill="black"
/>
<rect x="229" y="109" width="10" height="10"
fill="black"
/>
<rect x="241" y="109" width="10" height="10"
fill="black"
/>
<rect x="253" y="109" width="10" height="10"
fill="white"
/>
<rect x="265" y="109" width="10" height="10"
fill="white"
/>
<rect x="277" y="109" width="10" height="10"
fill="white"
/>
<rect x="289" y="109" width="10" height="10"
fill="black"
/>
<rect x="301" y="109" width="10" height="10"
fill="black"
/>
<rect x="313" y="109" width="10" height="10"
fill="black"
/>
<rect x="325" y="109" width="10" height="10"
fill="black"
/>
<rect x="337" y="109" width="10" height="10"
fill="black"
/>
<rect x="349" y="109" width="10" height="10"
fill="black"
/>
<rect x="1" y="121" width="10" height="10"
fill="black"
/>
<rect x="13" y="121" width="10" height="10"
fill="black"
/>
<rect x="25" y="121" width="10" height="10"
fill="black"
/>
<rect x="37" y="121" width="10" height="10"
fill="black"
/>
<rect x="49" y="121" width="10" height="10"
fill="black"
/>
<rect x="61" y="121" width="10" height="10"
fill="black"
/>
<rect x="73" y="121" width="10" height="10"
fill="black"
/>
<rect x="85" y="121" width="10" height="10"
fill="black"
/>
<rect x="97" y="121" width="10" height="10"
fill="black"
/>
<rect x="109" y="121" width="10" height="10"
fill="black"
/>
<rect x="121" y="121" width="10" height="10"
fill="black"
/>
<rect x="133" y="121" width="10" height="10"
fill="black"
/>
<rect x="145" y="121" width="10" height="10"
fill="black"
/>
<rect x="157" y="121" width="10" height="10"
fill="black"
/>
<rect x="169" y="121" width="10" height="10"
fill="black"
/>
<rect x="181" y="121" width="10" height="10"
fill="black"
/>
<rect x="193" y="121" width="10" height="10"
fill="black"
/>
<rect x="205" y="121" width="10" height="10"
fill="black"
/>
<rect x="217" y="121" width="10" height="10"
fill="black"
/>
<rect x="229" y="121" width="10" height="10"
fill="black"
/>
<rect x="241" y="121" width="10" height="10"
fill="black"
/>
<rect x="253" y="121" width="10" height="10"
fill="white"
/>
<rect x="265" y="121" width="10" height="10"
fill="black"
/>
<rect x="277" y="121" width="10" height="10"
fill="black"
/>
<rect x="289" y="121" width="10" height="10"
fill="black"
/>
<rect x="301" y="121" width="10" height="10"
fill="black"
/>
<rect x="313" y="121" width="10" height="10"
fill="black"
/>
<rect x="325" y="121" width="10" height="10"
fill="black"
/>
<rect x="337" y="121" width="10" height="10"
fill="black"
/>
<rect x="349" y="121" width="10" height="10"
fill="black"
/>
<rect x="1" y="133" width="10" height="10"
fill="black"
/>
<rect x="13" y="133" width="10" height="10"
fill="black"
/>
<rect x="25" y="133" width="10" height="10"
fill="black"
/>
<rect x="37" y="133" width="10" height="10"
fill="black"
/>
<rect x="49" y="133" width="10" height="10"
fill="black"
/>
<rect x="61" y="133" width="10" height="10"
fill="black"
/>
<rect x="73" y="133" width="10" height="10"
fill="black"
/>
<rect x="85" y="133" width="10" height="10"
fill="white"
/>
<rect x="97" y="133" width="10" height="10"
fill="white"
/>
<rect x="109" y="133" width="10" height="10"
fill="white"
/>
<rect x="121" y="133" width="10" height="10"
fill="black"
/>
<rect x="133" y="133" width="10" height="10"
fill="black"
/>
<rect x="145" y="133" width="10" height="10"
fill="black"
/>
<rect x="157" y="133" width="10" height="10"
fill="black"
/>
<rect x="169" y="133" width="10" height="10"
fill="black"
/>
<rect x="181" y="133" width="10" height="10"
fill="black"
/>
<rect x="193" y="133" width="10" height="10"
fill="white"
/>
<rect x="205" y="133" width="10" height="10"
fill="black"
/>
<rect x="217" y="133" width="10" height="10"
fill="black"
/>
<rect x="229" y="133" width="10" height="10"
fill="black"
/>
<rect x="241" y="133" width="10" height="10"
fill="black"
/>
<rect x="253" y="133" width="10" height="10"
fill="black"
/>
<rect x="265" y="133" width="10" height="10"
fill="black"
/>
<rect x="277" y="133" width="10" height="10"
fill="black"
/>
<rect x="289" y="133" width="10" height="10"
fill="black"
/>
<rect x="301" y="133" width="10" height="10"
fill="black"
/>
<rect x="313" y="133" width="10" height="10"
fill="black"
/>
<rect x="325" y="133" width="10" height="10"
fill="black"
/>
<rect x="337" y="133" width="10" height="10"
fill="black"
/>
<rect x="349" y="133" width="10" height="10"
fill="black"
/>
<rect x="1" y="145" width="10" height="10"
fill="black"
/>
<rect x="13" y="145" width="10" height="10"
fill="black"
/>
<rect x="25" y="145" width="10" height="10"
fill="black"
/>
<rect x="37" y="145" width="10" height="10"
fill="black"
/>
<rect x="49" y="145" width="10" height="10"
fill="black"
/>
<rect x="61" y="145" width="10" height="10"
fill="black"
/>
<rect x="73" y="145" width="10" height="10"
fill="black"
/>
<rect x="85" y="145" width="10" height="10"
fill="black"
/>
<rect x="97" y="145" width="10" height="10"
fill="black"
/>
<rect x="109" y="145" width="10" height="10"
fill="black"
/>
<rect x="121" y="145" width="10" height="10"
fill="black"
/>
<rect x="133" y="145" width="10" height="10"
fill="black"
/>
<rect x="145" y="145" width="10" height="10"
fill="black"
/>
<rect x="157" y="145" width="10" height="10"
fill="black"
/>
<rect x="169" y="145" width="10" height="10"
fill="black"
/>
<rect x="181" y="145" width="10" height="10"
fill="white"
/>
<rect x="193" y="145" width="10" height="10"
fill="black"
/>
<rect x="205" y="145" width="10" height="10"
fill="white"
/>
<rect x="217" y="145" width="10" height="10"
fill="black"
/>
<rect x="229" y="145" width="10" height="10"
fill="black"
/>
<rect x="241" y="145" width="10" height="10"
fill="black"
/>
<rect x="253" y="145" width="10" height="10"
fill="black"
/>
<rect x="265" y="145" width="10" height="10"
fill="black"
/>
<rect x="277" y="145" width="10" height="10"
fill="black"
/>
<rect x="289" y="145" width="10" height="10"
fill="black"
/>
<rect x="301" y="145" width="10" height="10"
fill="black"
/>
<rect x="313" y="145" width="10" height="10"
fill="black"
/>
<rect x="325" y="145" width="10" height="10"
fill="black"
/>
<rect x="337" y="145" width="10" height="10"
fill="black"
/>
<rect x="349" y="145" width="10" height="10"
fill="black"
/>
<rect x="1" y="157" width="10" height="10"
fill="black"
/>
<rect x="13" y="157" width="10" height="10"
fill="black"
/>
<rect x="25" y="157" width="10" height="10"
fill="black"
/>
<rect x="37" y="157" width="10" height="10"
fill="black"
/>
<rect x="49" y="157" width="10" height="10"
fill="black"
/>
<rect x="61" y="157" width="10" height="10"
fill="black"
/>
<rect x="73" y="157" width="10" height="10"
fill="white"
/>
<rect x="85" y="157" width="10" height="10"
fill="black"
/>
<rect x="97" y="157" width="10" height="10"
fill="black"
/>
<rect x="109" y="157" width="10" height="10"
fill="black"
/>
<rect x="121" y="157" width="10" height="10"
fill="white"
/>
<rect x="133" y="157" width="10" height="10"
fill="black"
/>
<rect x="145" y="157" width="10" height="10"
fill="black"
/>
<rect x="157" y="157" width="10" height="10"
fill="black"
/>
<rect x="169" y="157" width="10" height="10"
fill="black"
/>
<rect x="181" y="157" width="10" height="10"
fill="black"
/>
<rect x="193" y="157" width="10" height="10"
fill="white"
/>
<rect x="205" y="157" width="10" height="10"
fill="black"
/>
<rect x="217" y="157" width="10" height="10"
fill="black"
/>
<rect x="229" y="157" width="10" height="10"
fill="black"
/>
<rect x="241" y="157" width="10" height="10"
fill="black"
/>
<rect x="253" y="157" width="10" height="10"
fill="black"
/>
<rect x="265" y="157" width="10" height="10"
fill="black"
/>
<rect x="277" y="157" width="10" height="10"
fill="black"
/>
<rect x="289" y="157" width="10" height="10"
fill="black"
/>
<rect x="301" y="157" width="10" height="10"
fill="black"
/>
<rect x="313" y="157" width="10" height="10"
fill="black"
/>
<rect x="325" y="157" width="10" height="10"
fill="black"
/>
<rect x="337" y="157" width="10" height="10"
fill="black"
/>
<rect x="349" y="157" width="10" height="10"
fill="black"
/>
<rect x="1" y="169" width="10" height="10"
fill="black"
/>
<rect x="13" y="169" width="10" height="10"
fill="black"
/>
<rect x="25" y="169" width="10" height="10"
fill="black"
/>
<rect x="37" y="169" width="10" height="10"
fill="black"
/>
<rect x="49" y="169" width="10" height="10"
fill="black"
/>
<rect x="61" y="169" width="10" height="10"
fill="black"
/>
<rect x="73" y="169" width="10" height="10"
fill="white"
/>
<rect x="85" y="169" width="10" height="10"
fill="black"
/>
<rect x="97" y="169" width="10" height="10"
fill="black"
/>
<rect x="109" y="169" width="10" height="10"
fill="black"
/>
<rect x="121" y="169" width="10" height="10"
fill="white"
/>
<rect x="133" y="169" width="10" height="10"
fill="black"
/>
<rect x="145" y="169" width="10" height="10"
fill="black"
/>
<rect x="157" y="169" width="10" height="10"
fill="black"
/>
<rect x="169" y="169" width="10" height="10"
fill="black"
/>
<rect x="181" y="169" width="10" height="10"
fill="black"
/>
<rect x="193" y="169" width="10" height="10"
fill="black"
/>
<rect x="205" y="169" width="10" height="10"
fill="black"
/>
<rect x="217" y="169" width="10" height="10"
fill="black"
/>
<rect x="229" y="169" width="10" height="10"
fill="black"
/>
<rect x="241" y="169" width="10" height="10"
fill="black"
/>
<rect x="253" y="169" width="10" height="10"
fill="black"
/>
<rect x="265" y="169" width="10" height="10"
fill="black"
/>
<rect x="277" y="169" width="10" height="10"
fill="black"
/>
<rect x="289" y="169" width="10" height="10"
fill="black"
/>
<rect x="301" y="169" width="10" height="10"
fill="black"
/>
<rect x="313" y="169" width="10" height="10"
fill="black"
/>
<rect x="325" y="169" width="10" height="10"
fill="black"
/>
<rect x="337" y="169" width="10" height="10"
fill="black"
/>
<rect x="349" y="169" width="10" height="10"
fill="black"
/>
<rect x="1" y="181" width="10" height="10"
fill="black"
/>
<rect x="13" y="181" width="10" height="10"
fill="black"
/>
<rect x="25" y="181" width="10" height="10"
fill="black"
/>
<rect x="37" y="181" width="10" height="10"
fill="black"
/>
<rect x="49" y="181" width="10" height="10"
fill="black"
/>
<rect x="61" y="181" width="10" height="10"
fill="black"
/>
<rect x="73" y="181" width="10" height="10"
fill="black"
/>
<rect x="85" y="181" width="10" height="10"
fill="black"
/>
<rect x="97" y="181" width="10" height="10"
fill="black"
/>
<rect x="109" y="181" width="10" height="10"
fill="black"
/>
<rect x="121" y="181" width="10" height="10"
fill="black"
/>
<rect x="133" y="181" width="10" height="10"
fill="black"
/>
<rect x="145" y="181" width="10" height="10"
fill="black"
/>
<rect x="157" y="181" width="10" height="10"
fill="black"
/>
<rect x="169" y="181" width="10" height="10"
fill="black"
/>
<rect x="181" y="181" width="10" height="10"
fill="black"
/>
<rect x="193" y="181" width="10" height="10"
fill="black"
/>
<rect x="205" y="181" width="10" height="10"
fill="black"
/>
<rect x="217" y="181" width="10" height="10"
fill="black"
/>
<rect x="229" y="181" width="10" height="10"
fill="black"
/>
<rect x="241" y="181" width="10" height="10"
fill="black"
/>
<rect x="253" y="181" width="10" height="10"
fill="black"
/>
<rect x="265" y="181" width="10" height="10"
fill="black"
/>
<rect x="277" y="181" width="10" height="10"
fill="black"
/>
<rect x="289" y="181" width="10" height="10"
fill="black"
/>
<rect x="301" y="181" width="10" height="10"
fill="black"
/>
<rect x="313" y="181" width="10" height="10"
fill="black"
/>
<rect x="325" y="181" width="10" height="10"
fill="black"
/>
<rect x="337" y="181" width="10" height="10"
fill="black"
/>
<rect x="349" y="181" width="10" height="10"
fill="black"
/>
<rect x="1" y="193" width="10" height="10"
fill="black"
/>
<rect x="13" y="193" width="10" height="10"
fill="black"
/>
<rect x="25" y="193" width="10" height="10"
fill="black"
/>
<rect x="37" y="193" width="10" height="10"
fill="black"
/>
<rect x="49" y="193" width="10" height="10"
fill="black"
/>
<rect x="61" y="193" width="10" height="10"
fill="black"
/>
<rect x="73" y="193" width="10" height="10"
fill="black"
/>
<rect x="85" y="193" width="10" height="10"
fill="white"
/>
<rect x="97" y="193" width="10" height="10"
fill="white"
/>
<rect x="109" y="193" width="10" height="10"
fill="white"
/>
<rect x="121" y="193" width="10" height="10"
fill="black"
/>
<rect x="133" y="193" width="10" height="10"
fill="black"
/>
<rect x="145" y="193" width="10" height="10"
fill="black"
/>
<rect x="157" y="193" width="10" height="10"
fill="black"
/>
<rect x="169" y="193" width="10" height="10"
fill="black"
/>
<rect x="181" y="193" width="10" height="10"
fill="black"
/>
<rect x="193" y="193" width="10" height="10"
fill="black"
/>
<rect x="205" y="193" width="10" height="10"
fill="black"
/>
<rect x="217" y="193" width="10" height="10"
fill="black"
/>
<rect x="229" y="193" width="10" height="10"
fill="black"
/>
<rect x="241" y="193" width="10" height="10"
fill="black"
/>
<rect x="253" y="193" width="10" height="10"
fill="black"
/>
<rect x="265" y="193" width="10" height="10"
fill="black"
/>
<rect x="277" y="193" width="10" height="10"
fill="black"
/>
<rect x="289" y="193" width="10" height="10"
fill="black"
/>
<rect x="301" y="193" width="10" height="10"
fill="black"
/>
<rect x="313" y="193" width="10" height="10"
fill="black"
/>
<rect x="325" y="193" width="10" height="10"
fill="black"
/>
<rect x="337" y="193" width="10" height="10"
fill="black"
/>
<rect x="349" y="193" width="10" height="10"
fill="black"
/>
<rect x="1" y="205" width="10" height="10"
fill="black"
/>
<rect x="13" y="205" width="10" height="10"
fill="black"
/>
<rect x="25" y="205" width="10" height="10"
fill="black"
/>
<rect x="37" y="205" width="10" height="10"
fill="black"
/>
<rect x="49" y="205" width="10" height="10"
fill="black"
/>
<rect x="61" y="205" width="10" height="10"
fill="black"
/>
<rect x="73" y="205" width="10" height="10"
fill="black"
/>
<rect x="85" y="205" width="10" height="10"
fill="black"
/>
<rect x="97" y="205" width="10" height="10"
fill="black"
/>
<rect x="109" y="205" width="10" height="10"
fill="black"
/>
<rect x="121" y="205" width="10" height="10"
fill="black"
/>
<rect x="133" y="205" width="10" height="10"
fill="black"
/>
<rect x="145" y="205" width="10" height="10"
fill="black"
/>
<rect x="157" y="205" width="10" height="10"
fill="black"
/>
<rect x="169" y="205" width="10" height="10"
fill="black"
/>
<rect x="181" y="205" width="10" height="10"
fill="black"
/>
<rect x="193" y="205" width="10" height="10"
fill="black"
/>
<rect x="205" y="205" width="10" height="10"
fill="black"
/>
<rect x="217" y="205" width="10" height="10"
fill="black"
/>
<rect x="229" y="205" width="10" height="10"
fill="black"
/>
<rect x="241" y="205" width="10" height="10"
fill="black"
/>
<rect x="253" y="205" width="10" height="10"
fill="black"
/>
<rect x="265" y="205" width="10" height="10"
fill="black"
/>
<rect x="277" y="205" width="10" height="10"
fill="black"
/>
<rect x="289" y="205" width="10" height="10"
fill="black"
/>
<rect x="301" y="205" width="10" height="10"
fill="black"
/>
<rect x="313" y="205" width="10" height="10"
fill="black"
/>
<rect x="325" y="205" width="10" height="10"
fill="black"
/>
<rect x="337" y="205" width="10" height="10"
fill="black"
/>
<rect x="349" y="205" width="10" height="10"
fill="black"
/>
<rect x="1" y="217" width="10" height="10"
fill="black"
/>
<rect x="13" y="217" width="10" height="10"
fill="black"
/>
<rect x="25" y="217" width="10" height="10"
fill="black"
/>
<rect x="37" y="217" width="10" height="10"
fill="black"
/>
<rect x="49" y="217" width="10" height="10"
fill="black"
/>
<rect x="61" y="217" width="10" height="10"
fill="black"
/>
<rect x="73" y="217" width="10" height="10"
fill="black"
/>
<rect x="85" y="217" width="10" height="10"
fill="black"
/>
<rect x="97" y="217" width="10" height="10"
fill="black"
/>
<rect x="109" y="217" width="10" height="10"
fill="black"
/>
<rect x="121" y="217" width="10" height="10"
fill="black"
/>
<rect x="133" y="217" width="10" height="10"
fill="black"
/>
<rect x="145" y="217" width="10" height="10"
fill="black"
/>
<rect x="157" y="217" width="10" height="10"
fill="black"
/>
<rect x="169" y="217" width="10" height="10"
fill="black"
/>
<rect x="181" y="217" width="10" height="10"
fill="black"
/>
<rect x="193" y="217" width="10" height="10"
fill="black"
/>
<rect x="205" y="217" width="10" height="10"
fill="black"
/>
<rect x="217" y="217" width="10" height="10"
fill="black"
/>
<rect x="229" y="217" width="10" height="10"
fill="black"
/>
<rect x="241" y="217" width="10" height="10"
fill="black"
/>
<rect x="253" y="217" width="10" height="10"
fill="black"
/>
<rect x="265" y="217" width="10" height="10"
fill="black"
/>
<rect x="277" y="217" width="10" height="10"
fill="black"
/>
<rect x="289" y="217" width="10" height="10"
fill="black"
/>
<rect x="301" y="217" width="10" height="10"
fill="black"
/>
<rect x="313" y="217" width="10" height="10"
fill="black"
/>
<rect x="325" y="217" width="10" height="10"
fill="black"
/>
<rect x="337" y="217" width="10" height="10"
fill="black"
/>
<rect x="349" y="217" width="10" height="10"
fill="black"
/>
<rect x="1" y="229" width="10" height="10"
fill="black"
/>
<rect x="13" y="229" width="10" height="10"
fill="black"
/>
<rect x="25" y="229" width="10" height="10"
fill="black"
/>
<rect x="37" y="229" width="10" height="10"
fill="black"
/>
<rect x="49" y="229" width="10" height="10"
fill="black"
/>
<rect x="61" y="229" width="10" height="10"
fill="black"
/>
<rect x="73" y="229" width="10" height="10"
fill="black"
/>
<rect x="85" y="229" width="10" height="10"
fill="black"
/>
<rect x="97" y="229" width="10" height="10"
fill="black"
/>
<rect x="109" y="229" width="10" height="10"
fill="black"
/>
<rect x="121" y="229" width="10" height="10"
fill="black"
/>
<rect x="133" y="229" width="10" height="10"
fill="black"
/>
<rect x="145" y="229" width="10" height="10"
fill="black"
/>
<rect x="157" y="229" width="10" height="10"
fill="black"
/>
<rect x="169" y="229" width="10" height="10"
fill="black"
/>
<rect x="181" y="229" width="10" height="10"
fill="black"
/>
<rect x="193" y="229" width="10" height="10"
fill="black"
/>
<rect x="205" y="229" width="10" height="10"
fill="black"
/>
<rect x="217" y="229" width="10" height="10"
fill="black"
/>
<rect x="229" y="229" width="10" height="10"
fill="black"
/>
<rect x="241" y="229" width="10" height="10"
fill="black"
/>
<rect x="253" y="229" width="10" height="10"
fill="black"
/>
<rect x="265" y="229" width="10" height="10"
fill="black"
/>
<rect x="277" y="229" width="10" height="10"
fill="black"
/>
<rect x="289" y="229" width="10" height="10"
fill="black"
/>
<rect x="301" y="229" width="10" height="10"
fill="black"
/>
<rect x="313" y="229" width="10" height="10"
fill="black"
/>
<rect x="325" y="229" width="10" height="10"
fill="black"
/>
<rect x="337" y="229" width="10" height="10"
fill="black"
/>
<rect x="349" y="229" width="10" height="10"
fill="black"
/>
</svg>
