<?xml version="1.0" encoding="utf-8" standalone="no"?>
<!DOCTYPE svg PUBLIC "-//W3C//DTD SVG 1.1//EN"
  "http://www.w3.org/Graphics/SVG/1.1/DTD/svg11.dtd">
<svg xmlns:xlink="http://www.w3.org/1999/xlink" width="572.4pt" height="180.72pt" viewBox="0 0 572.4 180.72" xmlns="http://www.w3.org/2000/svg" version="1.1">
 <metadata>
  <rdf:RDF xmlns:dc="http://purl.org/dc/elements/1.1/" xmlns:cc="http://creativecommons.org/ns#" xmlns:rdf="http://www.w3.org/1999/02/22-rdf-syntax-ns#">
   <cc:Work>
    <dc:type rdf:resource="http://purl.org/dc/dcmitype/StillImage"/>
    <dc:date>2026-07-20T03:43:28.982133</dc:date>
    <dc:format>image/svg+xml</dc:format>
    <dc:creator>
     <cc:Agent>
      <dc:title>Matplotlib v3.11.1, https://matplotlib.org/</dc:title>
     </cc:Agent>
    </dc:creator>
   </cc:Work>
  </rdf:RDF>
 </metadata>
 <defs>
  <style type="text/css">*{stroke-linejoin: round; stroke-linecap: butt}</style>
 </defs>
 <g id="figure_1">
  <g id="patch_1">
   <path d="M 0 180.72 
L 572.4 180.72 
L 572.4 0 
L 0 0 
z
" style="fill: #0d1117"/>
  </g>
  <g id="axes_1">
   <g id="patch_2">
    <path d="M 7.2 -48.24 
L 230.755431 -48.24 
L 230.755431 62.64 
L 7.2 62.64 
z
" clip-path="url(#pd0e94b8f92)" style="fill: #555555"/>
   </g>
   <g id="patch_3">
    <path d="M 233.547811 -48.24 
L 310.510962 -48.24 
L 310.510962 62.64 
L 233.547811 62.64 
z
" clip-path="url(#pd0e94b8f92)" style="fill: #3572a5"/>
   </g>
   <g id="patch_4">
    <path d="M 313.303342 -48.24 
L 379.435056 -48.24 
L 379.435056 62.64 
L 313.303342 62.64 
z
" clip-path="url(#pd0e94b8f92)" style="fill: #f34b7d"/>
   </g>
   <g id="patch_5">
    <path d="M 382.227435 -48.24 
L 442.310207 -48.24 
L 442.310207 62.64 
L 382.227435 62.64 
z
" clip-path="url(#pd0e94b8f92)" style="fill: #000080"/>
   </g>
   <g id="patch_6">
    <path d="M 445.102587 -48.24 
L 473.217519 -48.24 
L 473.217519 62.64 
L 445.102587 62.64 
z
" clip-path="url(#pd0e94b8f92)" style="fill: #f1e05a"/>
   </g>
   <g id="patch_7">
    <path d="M 476.009899 -48.24 
L 501.616218 -48.24 
L 501.616218 62.64 
L 476.009899 62.64 
z
" clip-path="url(#pd0e94b8f92)" style="fill: #44a51c"/>
   </g>
   <g id="patch_8">
    <path d="M 504.408598 -48.24 
L 528.624472 -48.24 
L 528.624472 62.64 
L 504.408598 62.64 
z
" clip-path="url(#pd0e94b8f92)" style="fill: #239dad"/>
   </g>
   <g id="patch_9">
    <path d="M 531.416852 -48.24 
L 542.895784 -48.24 
L 542.895784 62.64 
L 531.416852 62.64 
z
" clip-path="url(#pd0e94b8f92)" style="fill: #b07219"/>
   </g>
   <g id="patch_10">
    <path d="M 545.688164 -48.24 
L 550.580067 -48.24 
L 550.580067 62.64 
L 545.688164 62.64 
z
" clip-path="url(#pd0e94b8f92)" style="fill: #1f77b4"/>
   </g>
   <g id="patch_11">
    <path d="M 553.372446 -48.24 
L 556.99042 -48.24 
L 556.99042 62.64 
L 553.372446 62.64 
z
" clip-path="url(#pd0e94b8f92)" style="fill: #b2b7f8"/>
   </g>
   <g id="patch_12">
    <path d="M 559.782799 -48.24 
L 562.40762 -48.24 
L 562.40762 62.64 
L 559.782799 62.64 
z
" clip-path="url(#pd0e94b8f92)" style="fill: #7e7eff"/>
   </g>
   <g id="patch_13">
    <path d="M 565.2 -48.24 
L 565.2 -48.24 
L 565.2 62.64 
L 565.2 62.64 
z
" clip-path="url(#pd0e94b8f92)" style="fill: #df7900"/>
   </g>
   <g id="legend_1">
    <g id="patch_14">
     <path d="M 115.999375 94.553438 
L 143.999375 94.553438 
L 143.999375 84.753438 
L 115.999375 84.753438 
z
" style="fill: #555555"/>
    </g>
    <g id="text_1">
     <!-- C -->
     <g style="fill: #f0f6fc" transform="translate(155.199375 94.553438) scale(0.14 -0.14)">
      <defs>
       <path id="DejaVuSans-26" d="M 4122 4306 
L 4122 3641 
Q 3803 3938 3442 4084 
Q 3081 4231 2675 4231 
Q 1875 4231 1450 3742 
Q 1025 3253 1025 2328 
Q 1025 1406 1450 917 
Q 1875 428 2675 428 
Q 3081 428 3442 575 
Q 3803 722 4122 1019 
L 4122 359 
Q 3791 134 3420 21 
Q 3050 -91 2638 -91 
Q 1578 -91 968 557 
Q 359 1206 359 2328 
Q 359 3453 968 4101 
Q 1578 4750 2638 4750 
Q 3056 4750 3426 4639 
Q 3797 4528 4122 4306 
z
" transform="scale(0.015625)"/>
      </defs>
      <use xlink:href="#DejaVuSans-26"/>
     </g>
    </g>
    <g id="patch_15">
     <path d="M 115.999375 115.554531 
L 143.999375 115.554531 
L 143.999375 105.754531 
L 115.999375 105.754531 
z
" style="fill: #3572a5"/>
    </g>
    <g id="text_2">
     <!-- Python -->
     <g style="fill: #f0f6fc" transform="translate(155.199375 115.554531) scale(0.14 -0.14)">
      <defs>
       <path id="DejaVuSans-33" d="M 1259 4147 
L 1259 2394 
L 2053 2394 
Q 2494 2394 2734 2622 
Q 2975 2850 2975 3272 
Q 2975 3691 2734 3919 
Q 2494 4147 2053 4147 
L 1259 4147 
z
M 628 4666 
L 2053 4666 
Q 2838 4666 3239 4311 
Q 3641 3956 3641 3272 
Q 3641 2581 3239 2228 
Q 2838 1875 2053 1875 
L 1259 1875 
L 1259 0 
L 628 0 
L 628 4666 
z
" transform="scale(0.015625)"/>
       <path id="DejaVuSans-5c" d="M 2059 -325 
Q 1816 -950 1584 -1140 
Q 1353 -1331 966 -1331 
L 506 -1331 
L 506 -850 
L 844 -850 
Q 1081 -850 1212 -737 
Q 1344 -625 1503 -206 
L 1606 56 
L 191 3500 
L 800 3500 
L 1894 763 
L 2988 3500 
L 3597 3500 
L 2059 -325 
z
" transform="scale(0.015625)"/>
       <path id="DejaVuSans-57" d="M 1172 4494 
L 1172 3500 
L 2356 3500 
L 2356 3053 
L 1172 3053 
L 1172 1153 
Q 1172 725 1289 603 
Q 1406 481 1766 481 
L 2356 481 
L 2356 0 
L 1766 0 
Q 1100 0 847 248 
Q 594 497 594 1153 
L 594 3053 
L 172 3053 
L 172 3500 
L 594 3500 
L 594 4494 
L 1172 4494 
z
" transform="scale(0.015625)"/>
       <path id="DejaVuSans-4b" d="M 3513 2113 
L 3513 0 
L 2938 0 
L 2938 2094 
Q 2938 2591 2744 2837 
Q 2550 3084 2163 3084 
Q 1697 3084 1428 2787 
Q 1159 2491 1159 1978 
L 1159 0 
L 581 0 
L 581 4863 
L 1159 4863 
L 1159 2956 
Q 1366 3272 1645 3428 
Q 1925 3584 2291 3584 
Q 2894 3584 3203 3211 
Q 3513 2838 3513 2113 
z
" transform="scale(0.015625)"/>
       <path id="DejaVuSans-52" d="M 1959 3097 
Q 1497 3097 1228 2736 
Q 959 2375 959 1747 
Q 959 1119 1226 758 
Q 1494 397 1959 397 
Q 2419 397 2687 759 
Q 2956 1122 2956 1747 
Q 2956 2369 2687 2733 
Q 2419 3097 1959 3097 
z
M 1959 3584 
Q 2709 3584 3137 3096 
Q 3566 2609 3566 1747 
Q 3566 888 3137 398 
Q 2709 -91 1959 -91 
Q 1206 -91 779 398 
Q 353 888 353 1747 
Q 353 2609 779 3096 
Q 1206 3584 1959 3584 
z
" transform="scale(0.015625)"/>
       <path id="DejaVuSans-51" d="M 3513 2113 
L 3513 0 
L 2938 0 
L 2938 2094 
Q 2938 2591 2744 2837 
Q 2550 3084 2163 3084 
Q 1697 3084 1428 2787 
Q 1159 2491 1159 1978 
L 1159 0 
L 581 0 
L 581 3500 
L 1159 3500 
L 1159 2956 
Q 1366 3272 1645 3428 
Q 1925 3584 2291 3584 
Q 2894 3584 3203 3211 
Q 3513 2838 3513 2113 
z
" transform="scale(0.015625)"/>
      </defs>
      <use xlink:href="#DejaVuSans-33"/>
      <use xlink:href="#DejaVuSans-5c" transform="translate(60.296875 0)"/>
      <use xlink:href="#DejaVuSans-57" transform="translate(119.484375 0)"/>
      <use xlink:href="#DejaVuSans-4b" transform="translate(158.6875 0)"/>
      <use xlink:href="#DejaVuSans-52" transform="translate(222.0625 0)"/>
      <use xlink:href="#DejaVuSans-51" transform="translate(283.25 0)"/>
     </g>
    </g>
    <g id="patch_16">
     <path d="M 115.999375 136.555625 
L 143.999375 136.555625 
L 143.999375 126.755625 
L 115.999375 126.755625 
z
" style="fill: #f34b7d"/>
    </g>
    <g id="text_3">
     <!-- C++ -->
     <g style="fill: #f0f6fc" transform="translate(155.199375 136.555625) scale(0.14 -0.14)">
      <defs>
       <path id="DejaVuSans-e" d="M 2944 4013 
L 2944 2272 
L 4684 2272 
L 4684 1741 
L 2944 1741 
L 2944 0 
L 2419 0 
L 2419 1741 
L 678 1741 
L 678 2272 
L 2419 2272 
L 2419 4013 
L 2944 4013 
z
" transform="scale(0.015625)"/>
      </defs>
      <use xlink:href="#DejaVuSans-26"/>
      <use xlink:href="#DejaVuSans-e" transform="translate(69.828125 0)"/>
      <use xlink:href="#DejaVuSans-e" transform="translate(153.625 0)"/>
     </g>
    </g>
    <g id="patch_17">
     <path d="M 115.999375 157.556719 
L 143.999375 157.556719 
L 143.999375 147.756719 
L 115.999375 147.756719 
z
" style="fill: #000080"/>
    </g>
    <g id="text_4">
     <!-- Lua -->
     <g style="fill: #f0f6fc" transform="translate(155.199375 157.556719) scale(0.14 -0.14)">
      <defs>
       <path id="DejaVuSans-2f" d="M 628 4666 
L 1259 4666 
L 1259 531 
L 3531 531 
L 3531 0 
L 628 0 
L 628 4666 
z
" transform="scale(0.015625)"/>
       <path id="DejaVuSans-58" d="M 544 1381 
L 544 3500 
L 1119 3500 
L 1119 1403 
Q 1119 906 1312 657 
Q 1506 409 1894 409 
Q 2359 409 2629 706 
Q 2900 1003 2900 1516 
L 2900 3500 
L 3475 3500 
L 3475 0 
L 2900 0 
L 2900 538 
Q 2691 219 2414 64 
Q 2138 -91 1772 -91 
Q 1169 -91 856 284 
Q 544 659 544 1381 
z
M 1991 3584 
L 1991 3584 
z
" transform="scale(0.015625)"/>
       <path id="DejaVuSans-44" d="M 2194 1759 
Q 1497 1759 1228 1600 
Q 959 1441 959 1056 
Q 959 750 1161 570 
Q 1363 391 1709 391 
Q 2188 391 2477 730 
Q 2766 1069 2766 1631 
L 2766 1759 
L 2194 1759 
z
M 3341 1997 
L 3341 0 
L 2766 0 
L 2766 531 
Q 2569 213 2275 61 
Q 1981 -91 1556 -91 
Q 1019 -91 701 211 
Q 384 513 384 1019 
Q 384 1609 779 1909 
Q 1175 2209 1959 2209 
L 2766 2209 
L 2766 2266 
Q 2766 2663 2505 2880 
Q 2244 3097 1772 3097 
Q 1472 3097 1187 3025 
Q 903 2953 641 2809 
L 641 3341 
Q 956 3463 1253 3523 
Q 1550 3584 1831 3584 
Q 2591 3584 2966 3190 
Q 3341 2797 3341 1997 
z
" transform="scale(0.015625)"/>
      </defs>
      <use xlink:href="#DejaVuSans-2f"/>
      <use xlink:href="#DejaVuSans-58" transform="translate(53.96875 0)"/>
      <use xlink:href="#DejaVuSans-44" transform="translate(117.34375 0)"/>
     </g>
    </g>
    <g id="patch_18">
     <path d="M 231.726875 94.553438 
L 259.726875 94.553438 
L 259.726875 84.753438 
L 231.726875 84.753438 
z
" style="fill: #f1e05a"/>
    </g>
    <g id="text_5">
     <!-- JavaScript -->
     <g style="fill: #f0f6fc" transform="translate(270.926875 94.553438) scale(0.14 -0.14)">
      <defs>
       <path id="DejaVuSans-2d" d="M 628 4666 
L 1259 4666 
L 1259 325 
Q 1259 -519 939 -900 
Q 619 -1281 -91 -1281 
L -331 -1281 
L -331 -750 
L -134 -750 
Q 284 -750 456 -515 
Q 628 -281 628 325 
L 628 4666 
z
" transform="scale(0.015625)"/>
       <path id="DejaVuSans-59" d="M 191 3500 
L 800 3500 
L 1894 563 
L 2988 3500 
L 3597 3500 
L 2284 0 
L 1503 0 
L 191 3500 
z
" transform="scale(0.015625)"/>
       <path id="DejaVuSans-36" d="M 3425 4513 
L 3425 3897 
Q 3066 4069 2747 4153 
Q 2428 4238 2131 4238 
Q 1616 4238 1336 4038 
Q 1056 3838 1056 3469 
Q 1056 3159 1242 3001 
Q 1428 2844 1947 2747 
L 2328 2669 
Q 3034 2534 3370 2195 
Q 3706 1856 3706 1288 
Q 3706 609 3251 259 
Q 2797 -91 1919 -91 
Q 1588 -91 1214 -16 
Q 841 59 441 206 
L 441 856 
Q 825 641 1194 531 
Q 1563 422 1919 422 
Q 2459 422 2753 634 
Q 3047 847 3047 1241 
Q 3047 1584 2836 1778 
Q 2625 1972 2144 2069 
L 1759 2144 
Q 1053 2284 737 2584 
Q 422 2884 422 3419 
Q 422 4038 858 4394 
Q 1294 4750 2059 4750 
Q 2388 4750 2728 4690 
Q 3069 4631 3425 4513 
z
" transform="scale(0.015625)"/>
       <path id="DejaVuSans-46" d="M 3122 3366 
L 3122 2828 
Q 2878 2963 2633 3030 
Q 2388 3097 2138 3097 
Q 1578 3097 1268 2742 
Q 959 2388 959 1747 
Q 959 1106 1268 751 
Q 1578 397 2138 397 
Q 2388 397 2633 464 
Q 2878 531 3122 666 
L 3122 134 
Q 2881 22 2623 -34 
Q 2366 -91 2075 -91 
Q 1284 -91 818 406 
Q 353 903 353 1747 
Q 353 2603 823 3093 
Q 1294 3584 2113 3584 
Q 2378 3584 2631 3529 
Q 2884 3475 3122 3366 
z
" transform="scale(0.015625)"/>
       <path id="DejaVuSans-55" d="M 2631 2963 
Q 2534 3019 2420 3045 
Q 2306 3072 2169 3072 
Q 1681 3072 1420 2755 
Q 1159 2438 1159 1844 
L 1159 0 
L 581 0 
L 581 3500 
L 1159 3500 
L 1159 2956 
Q 1341 3275 1631 3429 
Q 1922 3584 2338 3584 
Q 2397 3584 2469 3576 
Q 2541 3569 2628 3553 
L 2631 2963 
z
" transform="scale(0.015625)"/>
       <path id="DejaVuSans-4c" d="M 603 3500 
L 1178 3500 
L 1178 0 
L 603 0 
L 603 3500 
z
M 603 4863 
L 1178 4863 
L 1178 4134 
L 603 4134 
L 603 4863 
z
" transform="scale(0.015625)"/>
       <path id="DejaVuSans-53" d="M 1159 525 
L 1159 -1331 
L 581 -1331 
L 581 3500 
L 1159 3500 
L 1159 2969 
Q 1341 3281 1617 3432 
Q 1894 3584 2278 3584 
Q 2916 3584 3314 3078 
Q 3713 2572 3713 1747 
Q 3713 922 3314 415 
Q 2916 -91 2278 -91 
Q 1894 -91 1617 61 
Q 1341 213 1159 525 
z
M 3116 1747 
Q 3116 2381 2855 2742 
Q 2594 3103 2138 3103 
Q 1681 3103 1420 2742 
Q 1159 2381 1159 1747 
Q 1159 1113 1420 752 
Q 1681 391 2138 391 
Q 2594 391 2855 752 
Q 3116 1113 3116 1747 
z
" transform="scale(0.015625)"/>
      </defs>
      <use xlink:href="#DejaVuSans-2d"/>
      <use xlink:href="#DejaVuSans-44" transform="translate(29.5 0)"/>
      <use xlink:href="#DejaVuSans-59" transform="translate(90.78125 0)"/>
      <use xlink:href="#DejaVuSans-44" transform="translate(149.96875 0)"/>
      <use xlink:href="#DejaVuSans-36" transform="translate(211.25 0)"/>
      <use xlink:href="#DejaVuSans-46" transform="translate(274.734375 0)"/>
      <use xlink:href="#DejaVuSans-55" transform="translate(329.71875 0)"/>
      <use xlink:href="#DejaVuSans-4c" transform="translate(370.828125 0)"/>
      <use xlink:href="#DejaVuSans-53" transform="translate(398.609375 0)"/>
      <use xlink:href="#DejaVuSans-57" transform="translate(462.09375 0)"/>
     </g>
    </g>
    <g id="patch_19">
     <path d="M 231.726875 115.554531 
L 259.726875 115.554531 
L 259.726875 105.754531 
L 231.726875 105.754531 
z
" style="fill: #44a51c"/>
    </g>
    <g id="text_6">
     <!-- QML -->
     <g style="fill: #f0f6fc" transform="translate(270.926875 115.554531) scale(0.14 -0.14)">
      <defs>
       <path id="DejaVuSans-34" d="M 2522 4238 
Q 1834 4238 1429 3725 
Q 1025 3213 1025 2328 
Q 1025 1447 1429 934 
Q 1834 422 2522 422 
Q 3209 422 3611 934 
Q 4013 1447 4013 2328 
Q 4013 3213 3611 3725 
Q 3209 4238 2522 4238 
z
M 3406 84 
L 4238 -825 
L 3475 -825 
L 2784 -78 
Q 2681 -84 2626 -87 
Q 2572 -91 2522 -91 
Q 1538 -91 948 567 
Q 359 1225 359 2328 
Q 359 3434 948 4092 
Q 1538 4750 2522 4750 
Q 3503 4750 4090 4092 
Q 4678 3434 4678 2328 
Q 4678 1516 4351 937 
Q 4025 359 3406 84 
z
" transform="scale(0.015625)"/>
       <path id="DejaVuSans-30" d="M 628 4666 
L 1569 4666 
L 2759 1491 
L 3956 4666 
L 4897 4666 
L 4897 0 
L 4281 0 
L 4281 4097 
L 3078 897 
L 2444 897 
L 1241 4097 
L 1241 0 
L 628 0 
L 628 4666 
z
" transform="scale(0.015625)"/>
      </defs>
      <use xlink:href="#DejaVuSans-34"/>
      <use xlink:href="#DejaVuSans-30" transform="translate(78.71875 0)"/>
      <use xlink:href="#DejaVuSans-2f" transform="translate(165 0)"/>
     </g>
    </g>
    <g id="patch_20">
     <path d="M 231.726875 136.555625 
L 259.726875 136.555625 
L 259.726875 126.755625 
L 231.726875 126.755625 
z
" style="fill: #239dad"/>
    </g>
    <g id="text_7">
     <!-- Typst -->
     <g style="fill: #f0f6fc" transform="translate(270.926875 136.555625) scale(0.14 -0.14)">
      <defs>
       <path id="DejaVuSans-37" d="M -19 4666 
L 3928 4666 
L 3928 4134 
L 2272 4134 
L 2272 0 
L 1638 0 
L 1638 4134 
L -19 4134 
L -19 4666 
z
" transform="scale(0.015625)"/>
       <path id="DejaVuSans-56" d="M 2834 3397 
L 2834 2853 
Q 2591 2978 2328 3040 
Q 2066 3103 1784 3103 
Q 1356 3103 1142 2972 
Q 928 2841 928 2578 
Q 928 2378 1081 2264 
Q 1234 2150 1697 2047 
L 1894 2003 
Q 2506 1872 2764 1633 
Q 3022 1394 3022 966 
Q 3022 478 2636 193 
Q 2250 -91 1575 -91 
Q 1294 -91 989 -36 
Q 684 19 347 128 
L 347 722 
Q 666 556 975 473 
Q 1284 391 1588 391 
Q 1994 391 2212 530 
Q 2431 669 2431 922 
Q 2431 1156 2273 1281 
Q 2116 1406 1581 1522 
L 1381 1569 
Q 847 1681 609 1914 
Q 372 2147 372 2553 
Q 372 3047 722 3315 
Q 1072 3584 1716 3584 
Q 2034 3584 2315 3537 
Q 2597 3491 2834 3397 
z
" transform="scale(0.015625)"/>
      </defs>
      <use xlink:href="#DejaVuSans-37"/>
      <use xlink:href="#DejaVuSans-5c" transform="translate(45.5 0)"/>
      <use xlink:href="#DejaVuSans-53" transform="translate(104.6875 0)"/>
      <use xlink:href="#DejaVuSans-56" transform="translate(168.171875 0)"/>
      <use xlink:href="#DejaVuSans-57" transform="translate(220.265625 0)"/>
     </g>
    </g>
    <g id="patch_21">
     <path d="M 231.726875 157.556719 
L 259.726875 157.556719 
L 259.726875 147.756719 
L 231.726875 147.756719 
z
" style="fill: #b07219"/>
    </g>
    <g id="text_8">
     <!-- Java -->
     <g style="fill: #f0f6fc" transform="translate(270.926875 157.556719) scale(0.14 -0.14)">
      <use xlink:href="#DejaVuSans-2d"/>
      <use xlink:href="#DejaVuSans-44" transform="translate(29.5 0)"/>
      <use xlink:href="#DejaVuSans-59" transform="translate(90.78125 0)"/>
      <use xlink:href="#DejaVuSans-44" transform="translate(149.96875 0)"/>
     </g>
    </g>
    <g id="patch_22">
     <path d="M 369.108437 94.553438 
L 397.108437 94.553438 
L 397.108437 84.753438 
L 369.108437 84.753438 
z
" style="fill: #1f77b4"/>
    </g>
    <g id="text_9">
     <!-- GDB -->
     <g style="fill: #f0f6fc" transform="translate(408.308437 94.553438) scale(0.14 -0.14)">
      <defs>
       <path id="DejaVuSans-2a" d="M 3809 666 
L 3809 1919 
L 2778 1919 
L 2778 2438 
L 4434 2438 
L 4434 434 
Q 4069 175 3628 42 
Q 3188 -91 2688 -91 
Q 1594 -91 976 548 
Q 359 1188 359 2328 
Q 359 3472 976 4111 
Q 1594 4750 2688 4750 
Q 3144 4750 3555 4637 
Q 3966 4525 4313 4306 
L 4313 3634 
Q 3963 3931 3569 4081 
Q 3175 4231 2741 4231 
Q 1884 4231 1454 3753 
Q 1025 3275 1025 2328 
Q 1025 1384 1454 906 
Q 1884 428 2741 428 
Q 3075 428 3337 486 
Q 3600 544 3809 666 
z
" transform="scale(0.015625)"/>
       <path id="DejaVuSans-27" d="M 1259 4147 
L 1259 519 
L 2022 519 
Q 2988 519 3436 956 
Q 3884 1394 3884 2338 
Q 3884 3275 3436 3711 
Q 2988 4147 2022 4147 
L 1259 4147 
z
M 628 4666 
L 1925 4666 
Q 3281 4666 3915 4102 
Q 4550 3538 4550 2338 
Q 4550 1131 3912 565 
Q 3275 0 1925 0 
L 628 0 
L 628 4666 
z
" transform="scale(0.015625)"/>
       <path id="DejaVuSans-25" d="M 1259 2228 
L 1259 519 
L 2272 519 
Q 2781 519 3026 730 
Q 3272 941 3272 1375 
Q 3272 1813 3026 2020 
Q 2781 2228 2272 2228 
L 1259 2228 
z
M 1259 4147 
L 1259 2741 
L 2194 2741 
Q 2656 2741 2882 2914 
Q 3109 3088 3109 3444 
Q 3109 3797 2882 3972 
Q 2656 4147 2194 4147 
L 1259 4147 
z
M 628 4666 
L 2241 4666 
Q 2963 4666 3353 4366 
Q 3744 4066 3744 3513 
Q 3744 3084 3544 2831 
Q 3344 2578 2956 2516 
Q 3422 2416 3680 2098 
Q 3938 1781 3938 1306 
Q 3938 681 3513 340 
Q 3088 0 2303 0 
L 628 0 
L 628 4666 
z
" transform="scale(0.015625)"/>
      </defs>
      <use xlink:href="#DejaVuSans-2a"/>
      <use xlink:href="#DejaVuSans-27" transform="translate(77.484375 0)"/>
      <use xlink:href="#DejaVuSans-25" transform="translate(154.484375 0)"/>
     </g>
    </g>
    <g id="patch_23">
     <path d="M 369.108437 115.554531 
L 397.108437 115.554531 
L 397.108437 105.754531 
L 369.108437 105.754531 
z
" style="fill: #b2b7f8"/>
    </g>
    <g id="text_10">
     <!-- Verilog -->
     <g style="fill: #f0f6fc" transform="translate(408.308437 115.554531) scale(0.14 -0.14)">
      <defs>
       <path id="DejaVuSans-39" d="M 1831 0 
L 50 4666 
L 709 4666 
L 2188 738 
L 3669 4666 
L 4325 4666 
L 2547 0 
L 1831 0 
z
" transform="scale(0.015625)"/>
       <path id="DejaVuSans-48" d="M 3597 1894 
L 3597 1613 
L 953 1613 
Q 991 1019 1311 708 
Q 1631 397 2203 397 
Q 2534 397 2845 478 
Q 3156 559 3463 722 
L 3463 178 
Q 3153 47 2828 -22 
Q 2503 -91 2169 -91 
Q 1331 -91 842 396 
Q 353 884 353 1716 
Q 353 2575 817 3079 
Q 1281 3584 2069 3584 
Q 2775 3584 3186 3129 
Q 3597 2675 3597 1894 
z
M 3022 2063 
Q 3016 2534 2758 2815 
Q 2500 3097 2075 3097 
Q 1594 3097 1305 2825 
Q 1016 2553 972 2059 
L 3022 2063 
z
" transform="scale(0.015625)"/>
       <path id="DejaVuSans-4f" d="M 603 4863 
L 1178 4863 
L 1178 0 
L 603 0 
L 603 4863 
z
" transform="scale(0.015625)"/>
       <path id="DejaVuSans-4a" d="M 2906 1791 
Q 2906 2416 2648 2759 
Q 2391 3103 1925 3103 
Q 1463 3103 1205 2759 
Q 947 2416 947 1791 
Q 947 1169 1205 825 
Q 1463 481 1925 481 
Q 2391 481 2648 825 
Q 2906 1169 2906 1791 
z
M 3481 434 
Q 3481 -459 3084 -895 
Q 2688 -1331 1869 -1331 
Q 1566 -1331 1297 -1286 
Q 1028 -1241 775 -1147 
L 775 -588 
Q 1028 -725 1275 -790 
Q 1522 -856 1778 -856 
Q 2344 -856 2625 -561 
Q 2906 -266 2906 331 
L 2906 616 
Q 2728 306 2450 153 
Q 2172 0 1784 0 
Q 1141 0 747 490 
Q 353 981 353 1791 
Q 353 2603 747 3093 
Q 1141 3584 1784 3584 
Q 2172 3584 2450 3431 
Q 2728 3278 2906 2969 
L 2906 3500 
L 3481 3500 
L 3481 434 
z
" transform="scale(0.015625)"/>
      </defs>
      <use xlink:href="#DejaVuSans-39"/>
      <use xlink:href="#DejaVuSans-48" transform="translate(60.640625 0)"/>
      <use xlink:href="#DejaVuSans-55" transform="translate(122.171875 0)"/>
      <use xlink:href="#DejaVuSans-4c" transform="translate(163.28125 0)"/>
      <use xlink:href="#DejaVuSans-4f" transform="translate(191.0625 0)"/>
      <use xlink:href="#DejaVuSans-52" transform="translate(218.84375 0)"/>
      <use xlink:href="#DejaVuSans-4a" transform="translate(280.03125 0)"/>
     </g>
    </g>
    <g id="patch_24">
     <path d="M 369.108437 136.555625 
L 397.108437 136.555625 
L 397.108437 126.755625 
L 369.108437 126.755625 
z
" style="fill: #7e7eff"/>
    </g>
    <g id="text_11">
     <!-- Nix -->
     <g style="fill: #f0f6fc" transform="translate(408.308437 136.555625) scale(0.14 -0.14)">
      <defs>
       <path id="DejaVuSans-31" d="M 628 4666 
L 1478 4666 
L 3547 763 
L 3547 4666 
L 4159 4666 
L 4159 0 
L 3309 0 
L 1241 3903 
L 1241 0 
L 628 0 
L 628 4666 
z
" transform="scale(0.015625)"/>
       <path id="DejaVuSans-5b" d="M 3513 3500 
L 2247 1797 
L 3578 0 
L 2900 0 
L 1881 1375 
L 863 0 
L 184 0 
L 1544 1831 
L 300 3500 
L 978 3500 
L 1906 2253 
L 2834 3500 
L 3513 3500 
z
" transform="scale(0.015625)"/>
      </defs>
      <use xlink:href="#DejaVuSans-31"/>
      <use xlink:href="#DejaVuSans-4c" transform="translate(74.8125 0)"/>
      <use xlink:href="#DejaVuSans-5b" transform="translate(102.59375 0)"/>
     </g>
    </g>
    <g id="patch_25">
     <path d="M 369.108437 157.556719 
L 397.108437 157.556719 
L 397.108437 147.756719 
L 369.108437 147.756719 
z
" style="fill: #df7900"/>
    </g>
    <g id="text_12">
     <!-- Haxe -->
     <g style="fill: #f0f6fc" transform="translate(408.308437 157.556719) scale(0.14 -0.14)">
      <defs>
       <path id="DejaVuSans-2b" d="M 628 4666 
L 1259 4666 
L 1259 2753 
L 3553 2753 
L 3553 4666 
L 4184 4666 
L 4184 0 
L 3553 0 
L 3553 2222 
L 1259 2222 
L 1259 0 
L 628 0 
L 628 4666 
z
" transform="scale(0.015625)"/>
      </defs>
      <use xlink:href="#DejaVuSans-2b"/>
      <use xlink:href="#DejaVuSans-44" transform="translate(75.203125 0)"/>
      <use xlink:href="#DejaVuSans-5b" transform="translate(136.484375 0)"/>
      <use xlink:href="#DejaVuSans-48" transform="translate(192.59375 0)"/>
     </g>
    </g>
   </g>
  </g>
 </g>
 <defs>
  <clipPath id="pd0e94b8f92">
   <rect x="7.2" y="7.2" width="558" height="166.32"/>
  </clipPath>
 </defs>
</svg>
